<svg width="24" height="25" viewBox="0 0 24 25" fill="none" xmlns="http://www.w3.org/2000/svg">
<path d="M12 17.0909C13.3636 17.0909 14.5227 16.6136 15.4773 15.6591C16.4318 14.7045 16.9091 13.5455 16.9091 12.1818C16.9091 10.8182 16.4318 9.65909 15.4773 8.70455C14.5227 7.75 13.3636 7.27273 12 7.27273C10.6364 7.27273 9.47727 7.75 8.52273 8.70455C7.56818 9.65909 7.09091 10.8182 7.09091 12.1818C7.09091 13.5455 7.56818 14.7045 8.52273 15.6591C9.47727 16.6136 10.6364 17.0909 12 17.0909ZM12 15.1273C11.1818 15.1273 10.4864 14.8409 9.91364 14.2682C9.34091 13.6955 9.05455 13 9.05455 12.1818C9.05455 11.3636 9.34091 10.6682 9.91364 10.0955C10.4864 9.52273 11.1818 9.23636 12 9.23636C12.8182 9.23636 13.5136 9.52273 14.0864 10.0955C14.6591 10.6682 14.9455 11.3636 14.9455 12.1818C14.9455 13 14.6591 13.6955 14.0864 14.2682C13.5136 14.8409 12.8182 15.1273 12 15.1273ZM12 20.3636C9.34546 20.3636 6.92727 19.6227 4.74545 18.1409C2.56364 16.6591 0.981818 14.6727 0 12.1818C0.981818 9.69091 2.56364 7.70455 4.74545 6.22273C6.92727 4.74091 9.34546 4 12 4C14.6545 4 17.0727 4.74091 19.2545 6.22273C21.4364 7.70455 23.0182 9.69091 24 12.1818C23.0182 14.6727 21.4364 16.6591 19.2545 18.1409C17.0727 19.6227 14.6545 20.3636 12 20.3636Z" fill="#014861"/>
<line x1="18.8638" y1="0.503871" x2="4.86378" y2="24.5039" stroke="#014861" stroke-width="2"/>
</svg>
